REM DIRINDEX 1\2,1\3,1\4,1\5
REM DIRNAME cjc004,folder01,folder02,folder03,folder04
TITLE ""
FILE "1Q_t_0190-0199.mp3" MP3
  TRACK 01 AUDIO
    TITLE "3:cjc004_1470"
    INDEX 01 00:00:00
  TRACK 02 AUDIO
    TITLE "0:"
    INDEX 01 00:01:07
  TRACK 03 AUDIO
    TITLE "4:cjc004_1471"
    INDEX 01 00:01:30
  TRACK 04 AUDIO
    TITLE "0:"
    INDEX 01 00:02:63
  TRACK 05 AUDIO
    TITLE "5:cjc004_1472"
    INDEX 01 00:03:19
  TRACK 06 AUDIO
    TITLE "0:"
    INDEX 01 00:07:15
  TRACK 07 AUDIO
    TITLE "3:cjc004_1473"
    INDEX 01 00:07:74
  TRACK 08 AUDIO
    TITLE "0:"
    INDEX 01 00:09:18
  TRACK 09 AUDIO
    TITLE "4:cjc004_1474"
    INDEX 01 00:09:47
  TRACK 10 AUDIO
    TITLE "0:"
    INDEX 01 00:11:01
  TRACK 11 AUDIO
    TITLE "5:cjc004_1475"
    INDEX 01 00:11:21
  TRACK 12 AUDIO
    TITLE "0:"
    INDEX 01 00:16:02
  TRACK 13 AUDIO
    TITLE "3:cjc004_1476"
    INDEX 01 00:16:57
  TRACK 14 AUDIO
    TITLE "0:"
    INDEX 01 00:17:51
  TRACK 15 AUDIO
    TITLE "4:cjc004_1477"
    INDEX 01 00:18:01
  TRACK 16 AUDIO
    TITLE "0:"
    INDEX 01 00:19:24
  TRACK 17 AUDIO
    TITLE "5:cjc004_1478"
    INDEX 01 00:19:54
  TRACK 18 AUDIO
    TITLE "0:"
    INDEX 01 00:24:37
  TRACK 19 AUDIO
    TITLE "3:cjc004_1479"
    INDEX 01 00:25:15
  TRACK 20 AUDIO
    TITLE "0:"
    INDEX 01 00:26:15
  TRACK 21 AUDIO
    TITLE "4:cjc004_1480"
    INDEX 01 00:26:58
  TRACK 22 AUDIO
    TITLE "0:"
    INDEX 01 00:28:00
  TRACK 23 AUDIO
    TITLE "5:cjc004_1481"
    INDEX 01 00:28:33
  TRACK 24 AUDIO
    TITLE "0:"
    INDEX 01 00:33:19
  TRACK 25 AUDIO
    TITLE "3:cjc004_1482"
    INDEX 01 00:34:02
  TRACK 26 AUDIO
    TITLE "0:"
    INDEX 01 00:35:00
  TRACK 27 AUDIO
    TITLE "4:cjc004_1483"
    INDEX 01 00:35:29
  TRACK 28 AUDIO
    TITLE "0:"
    INDEX 01 00:36:33
  TRACK 29 AUDIO
    TITLE "5:cjc004_1484"
    INDEX 01 00:36:60
  TRACK 30 AUDIO
    TITLE "0:"
    INDEX 01 00:41:49
  TRACK 31 AUDIO
    TITLE "3:cjc004_1485"
    INDEX 01 00:42:31
  TRACK 32 AUDIO
    TITLE "0:"
    INDEX 01 00:43:46
  TRACK 33 AUDIO
    TITLE "4:cjc004_1486"
    INDEX 01 00:44:14
  TRACK 34 AUDIO
    TITLE "0:"
    INDEX 01 00:45:30
  TRACK 35 AUDIO
    TITLE "5:cjc004_1487"
    INDEX 01 00:45:65
  TRACK 36 AUDIO
    TITLE "0:"
    INDEX 01 00:51:36
  TRACK 37 AUDIO
    TITLE "3:cjc004_1488"
    INDEX 01 00:52:18
  TRACK 38 AUDIO
    TITLE "0:"
    INDEX 01 00:53:21
  TRACK 39 AUDIO
    TITLE "4:cjc004_1489"
    INDEX 01 00:53:51
  TRACK 40 AUDIO
    TITLE "0:"
    INDEX 01 00:54:54
  TRACK 41 AUDIO
    TITLE "5:cjc004_1490"
    INDEX 01 00:55:12
  TRACK 42 AUDIO
    TITLE "0:"
    INDEX 01 01:00:37
  TRACK 43 AUDIO
    TITLE "3:cjc004_1491"
    INDEX 01 01:01:17
  TRACK 44 AUDIO
    TITLE "0:"
    INDEX 01 01:02:36
  TRACK 45 AUDIO
    TITLE "4:cjc004_1492"
    INDEX 01 01:03:06
  TRACK 46 AUDIO
    TITLE "0:"
    INDEX 01 01:04:60
  TRACK 47 AUDIO
    TITLE "5:cjc004_1493"
    INDEX 01 01:05:17
  TRACK 48 AUDIO
    TITLE "0:"
    INDEX 01 01:09:69
  TRACK 49 AUDIO
    TITLE "3:cjc004_1494"
    INDEX 01 01:10:59
  TRACK 50 AUDIO
    TITLE "0:"
    INDEX 01 01:12:03
  TRACK 51 AUDIO
    TITLE "4:cjc004_1495"
    INDEX 01 01:12:28
  TRACK 52 AUDIO
    TITLE "0:"
    INDEX 01 01:13:45
  TRACK 53 AUDIO
    TITLE "5:cjc004_1496"
    INDEX 01 01:13:69
  TRACK 54 AUDIO
    TITLE "0:"
    INDEX 01 01:18:33
  TRACK 55 AUDIO
    TITLE "3:cjc004_1497"
    INDEX 01 01:19:19
  TRACK 56 AUDIO
    TITLE "0:"
    INDEX 01 01:20:30
  TRACK 57 AUDIO
    TITLE "4:cjc004_1498"
    INDEX 01 01:20:57
  TRACK 58 AUDIO
    TITLE "0:"
    INDEX 01 01:22:21
  TRACK 59 AUDIO
    TITLE "5:cjc004_1499"
    INDEX 01 01:22:54
  TRACK 60 AUDIO
    TITLE "0:"
    INDEX 01 01:28:00
